# xmcd
#
# Track frame offsets:
#	150
#	18284
#	34283
#	49649
#	68254
#	87020
#	103588
#	120515
#	139372
#	156565
#	175209
#	192496
#	210113
#	228038
#	246420
#	263706
#
# Disc length: 3719 seconds
#
# Revision: 4
# Processed by: cddbd v1.5.2PL0 Copyright (c) Steve Scherf et al.
# Submitted via: EasyCDDAExtractor 12.0.4.1
#
DISCID=cf0e8510
DTITLE=หลวงไก่ สมพงษ์ จิตรเที่ยง - หลวงไก่ จัมโบ้ฮิต
DYEAR=2010
DGENRE=Country
TTITLE0=เก็บไว้นานนาน
TTITLE1=สู้เพื่อเธอ
TTITLE2=แค่โทรมาบอกว่าคิดถึง
TTITLE3=เลิกราไม่เลิกรัก
TTITLE4=ใครใช้ให้ไปรักเขา
TTITLE5=ขอบคุณที่ยังรักกัน
TTITLE6=ขวัญใจพี่หลวง
TTITLE7=ฝากเพลงหอมแก้ม
TTITLE8=ขยะหัวใจ
TTITLE9=เศษทรายในรองเท้า
TTITLE10=แหลงชัดคำเดียว
TTITLE11=รักหลาวรักเดียว
TTITLE12=อย่าแหลงแผ้ว แผ้ว
TTITLE13=เด็กช่าง...รักจริง
TTITLE14=สาวสะตอ ม.ราม
TTITLE15=แรงใจพี่หลวง
EXTD=
EXTT0=
EXTT1=
EXTT2=
EXTT3=
EXTT4=
EXTT5=
EXTT6=
EXTT7=
EXTT8=
EXTT9=
EXTT10=
EXTT11=
EXTT12=
EXTT13=
EXTT14=
EXTT15=
PLAYORDER=
